# xmcd
#
# Track frame offsets:
#	150
#	23421
#	51269
#	68776
#	85529
#	103553
#	124484
#	141832
#	158843
#	178045
#	194418
#	208800
#
# Disc length: 2930 seconds
#
# Revision: 2
# Processed by: cddbd v1.5.2PL0 Copyright (c) Steve Scherf et al.
# Submitted via: audiograbber 1.83.01
#
DISCID=a50b700c
DTITLE=The World of Salsa - The World of Salsa - CD1
DYEAR=1997
DGENRE=Salsa
TTITLE0=01 - La Sospechosa - La Tumbadora
TTITLE1=02 - La Sospechosa - El Zancudo
TTITLE2=03 - Los Tringuenos - Dime Que Si
TTITLE3=04 - Los Primos Calleja - Sacudelo Pa' Mi
TTITLE4=05 - Los Primos Calleja - La Negra De Chocolate
TTITLE5=06 - Grupo Valor - La Bifurcada
TTITLE6=07 - Los Primos Calleja - La Fiesta Ya Empezo
TTITLE7=08 - Los Tringuenos - Pa' Alimentar El Corazon
TTITLE8=09 - Ruben Roberts - Cumbia Dance (English Version)
TTITLE9=10 - Salsa Blanca - El Baile De Natalia
TTITLE10=11 - Los Titos - El Chiringuito
TTITLE11=12 - Los Santiagos - De Todo Un Poco
EXTD=YEAR: 1997
EXTT0=
EXTT1=
EXTT2=
EXTT3=
EXTT4=
EXTT5=
EXTT6=
EXTT7=
EXTT8=
EXTT9=
EXTT10=
EXTT11=
PLAYORDER=
